<?xml version="1.0" encoding="UTF-8"?> <svg xmlns="http://www.w3.org/2000/svg" xmlns:xlink="http://www.w3.org/1999/xlink" id="Layer_1" data-name="Layer 1" viewBox="0 0 430 430"><defs><clipPath id="clip-path"><path d="M334.35,134.35a119.35,119.35,0,1,0-206.29,81.72c27,35.33,33.52,82.12,34.2,102.15A24.71,24.71,0,0,0,187,342.09h56a24.71,24.71,0,0,0,24.72-23.87c.68-20,7.23-66.82,34.2-102.15A118.92,118.92,0,0,0,334.35,134.35Z" style="fill:none"></path></clipPath></defs><g style="opacity:0.8"><path d="M257.81,364.59H172.19a7.39,7.39,0,0,1-7.38-7.38v-1.43a7.39,7.39,0,0,1,7.38-7.38h85.62a7.38,7.38,0,0,1,7.37,7.38v1.43A7.38,7.38,0,0,1,257.81,364.59Zm-85.62-15.28a6.47,6.47,0,0,0-6.46,6.47v1.43a6.47,6.47,0,0,0,6.46,6.46h85.62a6.47,6.47,0,0,0,6.46-6.46v-1.43a6.47,6.47,0,0,0-6.46-6.47Z" style="fill:#414042"></path><path d="M255.26,382.68H174.74a6.76,6.76,0,0,1-6.75-6.75V375a6.75,6.75,0,0,1,6.75-6.74h80.52A6.75,6.75,0,0,1,262,375v.9A6.76,6.76,0,0,1,255.26,382.68ZM174.74,369.2a5.84,5.84,0,0,0-5.83,5.83v.9a5.83,5.83,0,0,0,5.83,5.83h80.52a5.84,5.84,0,0,0,5.83-5.83V375a5.84,5.84,0,0,0-5.83-5.83Z" style="fill:#414042"></path><path d="M253.49,398.89h-77a6.15,6.15,0,0,1-6.14-6.13v-.24a6.15,6.15,0,0,1,6.14-6.14h77a6.14,6.14,0,0,1,6.14,6.14v.24A6.14,6.14,0,0,1,253.49,398.89Zm-77-11.6a5.23,5.23,0,0,0-5.22,5.23v.24A5.23,5.23,0,0,0,176.5,398h77a5.23,5.23,0,0,0,5.23-5.22v-.24a5.23,5.23,0,0,0-5.23-5.23Z" style="fill:#414042"></path><path d="M239.15,415h-48.3a6.15,6.15,0,1,1,0-12.29h48.3a6.15,6.15,0,0,1,0,12.29Zm-48.3-11.38a5.24,5.24,0,0,0,0,10.47h48.3a5.24,5.24,0,0,0,0-10.47Z" style="fill:#414042"></path></g><g style="clip-path:url(#clip-path)"><g style="opacity:0.8"><path d="M222.43,97.1v50.57l-31.24,31.24v43.17a2.3,2.3,0,0,0-1.77,2.21,2.32,2.32,0,1,0,2.86-2.21V179.36l31.25-31.24V96.65L198.15,71.27V-41.28h-1.09v113Z" style="fill:#414042"></path><path d="M215.05,105.44V139.2a2,2,0,0,0-1.61,1.92,2,2,0,1,0,2.37-1.92V105.13L192.39,81.71V-18.55h-.76V82Z" style="fill:#414042"></path><path d="M230.75,83.58a2.2,2.2,0,0,0-.37,1.18,2.32,2.32,0,1,0,2.32-2.32,2.28,2.28,0,0,0-1.18.37L212,63.27V-15.82h-1.09V63.72Z" style="fill:#414042"></path><path d="M208.48,182.65a2.29,2.29,0,0,0-1.12-.33,2.32,2.32,0,1,0,2.32,2.32,2.22,2.22,0,0,0-.41-1.24l29.82-29.82V97.35a2.28,2.28,0,0,0,1.77-2.21,2.32,2.32,0,0,0-4.64,0A2.29,2.29,0,0,0,238,97.35v55.78Z" style="fill:#414042"></path><path d="M184.29,223.11v23.8a2.3,2.3,0,0,0-1.77,2.21,2.32,2.32,0,0,0,4.64,0,2.3,2.3,0,0,0-1.78-2.21V222.66l-26.6-26.61V113.56l20.74-20.74V-15.82h-1.1V92.37l-20.73,20.74v83.4Z" style="fill:#414042"></path><path d="M183,212.38a2.28,2.28,0,0,0-.37,1.18,2.32,2.32,0,1,0,2.32-2.32,2.28,2.28,0,0,0-1.18.37l-8.85-8.85V185l7.18-7.18a2.3,2.3,0,1,0-1.16-2,2.28,2.28,0,0,0,.38,1.21l-7.49,7.49v18.62Z" style="fill:#414042"></path><path d="M252.11,91.71,219.37,59V-15.82h-.76v75.1L251.35,92v68.44L233.9,177.92v40.46a2,2,0,0,0-1.61,1.91,2,2,0,1,0,4,0,2,2,0,0,0-1.62-1.92V178.24l17.45-17.45Z" style="fill:#414042"></path><path d="M226.81,52.35V-15.82h-1.09V52.8l33.83,33.84v69.48l19.17,19.17V221a2.28,2.28,0,0,0-1.77,2.2,2.32,2.32,0,0,0,4.64,0,2.29,2.29,0,0,0-1.78-2.2V174.84l-19.16-19.17V86.19Z" style="fill:#414042"></path><path d="M268.83,80.27,245.37,56.81V23a2.29,2.29,0,0,0,1.77-2.21,2.32,2.32,0,1,0-4.64,0A2.28,2.28,0,0,0,244.27,23V57.26l23.47,23.47v66.05A2.28,2.28,0,0,0,266,149a2.32,2.32,0,1,0,4.63,0,2.28,2.28,0,0,0-1.77-2.21Z" style="fill:#414042"></path><path d="M234.88-24.94c.65,1.92.34,42.54,0,70.75a2.33,2.33,0,1,0,1.1,0c.37-27.22.79-70.33-.18-71.39l-.54.51Z" style="fill:#414042"></path><path d="M262.57,63.5a1.85,1.85,0,0,0-.37,1.08,2,2,0,1,0,2-2,1.91,1.91,0,0,0-1.09.37l-10-10V-19.46h-.76V53.28Z" style="fill:#414042"></path><path d="M220.34,372.41l36.25-36.25V274.75a2,2,0,1,0-1.09,0v61L219.25,372v112.5h1.09Z" style="fill:#414042"></path><path d="M156.44,323.69V230.87l11.32-11.31a1.93,1.93,0,0,0,1,.31,2,2,0,1,0-2-2,1.92,1.92,0,0,0,.42,1.17l-11.4,11.41-.12.11V324l26,26V475.17h.76V349.65Z" style="fill:#414042"></path><path d="M270,350.81l.11-.11V257.61l-18.56-18.56v-47.4a2,2,0,0,0,1.62-1.92,2,2,0,1,0-2.38,1.92v47.72l18.55,18.55v92.46L236,383.73l-.11.12v87h.76V384.16Z" style="fill:#414042"></path><path d="M213,472.63h1.09V335.39L193.68,315v-43.9l28.39-28.39V186.06a2.28,2.28,0,0,0,1.77-2.21,2.32,2.32,0,0,0-4.64,0,2.3,2.3,0,0,0,1.78,2.21v56.18l-28.39,28.4v44.8l20.4,20.4Z" style="fill:#414042"></path><path d="M179.38,294.91a2.28,2.28,0,0,0-1.77,2.21,2.32,2.32,0,1,0,4.63,0,2.28,2.28,0,0,0-1.77-2.21V238.3l-5.73-5.73a2.28,2.28,0,0,0,.37-1.18,2.32,2.32,0,1,0-2.32,2.32,2.25,2.25,0,0,0,1.17-.37l5.42,5.41Z" style="fill:#414042"></path><path d="M180.31,307.34a2,2,0,0,0,1.61-1.92,2,2,0,1,0-2.38,1.92v19.9l13.88,13.88a1.92,1.92,0,0,0-.37,1.08,2,2,0,1,0,2-2,1.91,1.91,0,0,0-1.09.37l-13.65-13.66Z" style="fill:#414042"></path><path d="M191.63,327.18A2,2,0,0,0,190,324.1a2,2,0,1,0,1.09,3.62l14.06,14.06V479.54h.76V341.46Z" style="fill:#414042"></path><path d="M193.68,472.63V361a2.29,2.29,0,0,0,1.63-2.18,2.32,2.32,0,1,0-4.64,0,2.29,2.29,0,0,0,1.92,2.24V472.63Z" style="fill:#414042"></path><path d="M227.91,260.83a2.07,2.07,0,1,0-.54.54l11,11v51.15a2,2,0,0,0,.38,3.91,2,2,0,0,0,2-2,2,2,0,0,0-1.61-1.92V272Z" style="fill:#414042"></path><path d="M274,285.4a2.28,2.28,0,0,0,1.77,2.21v66L242.34,387v7.9a2.3,2.3,0,0,0-1.77,2.21,2.32,2.32,0,1,0,2.86-2.21v-7.45l33.4-33.4V287.61a2.29,2.29,0,0,0,1.78-2.21,2.32,2.32,0,0,0-4.64,0Z" style="fill:#414042"></path><path d="M267,71.8a2,2,0,0,0,2,2,1.94,1.94,0,0,0,1.06-.35l6.25,6.25V96.81a2,2,0,0,0-1.58,1.91,2,2,0,0,0,4,0,2,2,0,0,0-1.59-1.91V79.36l-6.49-6.49A2,2,0,1,0,267,71.8Z" style="fill:#414042"></path><path d="M245.37,141V105.7a2.32,2.32,0,1,0-1.1,0V141a2.28,2.28,0,0,0-1.77,2.21,2.32,2.32,0,0,0,4.64,0A2.29,2.29,0,0,0,245.37,141Z" style="fill:#414042"></path><path d="M259.55,188.38v33.7a2.3,2.3,0,0,0-1.77,2.21,2.32,2.32,0,1,0,2.87-2.21v-33.7a2.32,2.32,0,1,0-1.1,0Z" style="fill:#414042"></path><path d="M273.33,233.3a2.28,2.28,0,0,0-1.77-2.21v-52L260.41,168a2.2,2.2,0,0,0,.37-1.18,2.32,2.32,0,1,0-2.32,2.32,2.28,2.28,0,0,0,1.18-.37l10.83,10.82v51.5a2.29,2.29,0,0,0-1.78,2.21,2.32,2.32,0,1,0,4.64,0Z" style="fill:#414042"></path><path d="M249.45,296.81a2.29,2.29,0,0,0-1.78-2.21V266.75L232,251.08v-12l12.43-12.44V199.15a2.29,2.29,0,0,0,1.78-2.21,2.32,2.32,0,0,0-4.64,0,2.28,2.28,0,0,0,1.77,2.21v27l-12.43,12.44v12.91l15.66,15.67v27.4a2.28,2.28,0,0,0-1.77,2.21,2.32,2.32,0,1,0,4.64,0Z" style="fill:#414042"></path><path d="M237.16,341.15a2.28,2.28,0,0,0-.36-1.18l10.67-10.67V305.09a2.32,2.32,0,1,0-1.09,0v23.75L236,339.2a2.25,2.25,0,0,0-1.17-.37,2.32,2.32,0,1,0,2.31,2.32Z" style="fill:#414042"></path><path d="M227,355.82a2.29,2.29,0,0,0-1.78-2.21V320.14l-14.07-14.07V276.31A2.29,2.29,0,0,0,213,274.1a2.32,2.32,0,1,0-4.64,0,2.3,2.3,0,0,0,1.78,2.21v30.21l14.07,14.08v33a2.28,2.28,0,0,0-1.77,2.21,2.32,2.32,0,1,0,4.64,0Z" style="fill:#414042"></path><path d="M228.8,274.35v37.58a2.28,2.28,0,0,0-1.77,2.21,2.32,2.32,0,0,0,4.64,0,2.29,2.29,0,0,0-1.78-2.21V274.35a2.29,2.29,0,0,0,1.78-2.21,2.32,2.32,0,0,0-4.64,0A2.28,2.28,0,0,0,228.8,274.35Z" style="fill:#414042"></path><path d="M244,365.63a2.32,2.32,0,0,0-4.64,0,2.2,2.2,0,0,0,.37,1.18l-13,13v92.85h1.09v-92.4l12.65-12.65a2.2,2.2,0,0,0,1.18.37A2.32,2.32,0,0,0,244,365.63Z" style="fill:#414042"></path><path d="M249.54,351.3a2.32,2.32,0,1,0,4.64,0,2.2,2.2,0,0,0-.37-1.18l10.25-10.24V282.75a2.28,2.28,0,0,0,1.77-2.21,2.32,2.32,0,1,0-4.64,0,2.28,2.28,0,0,0,1.77,2.21v56.68L253,349.35a2.28,2.28,0,0,0-1.18-.37A2.32,2.32,0,0,0,249.54,351.3Z" style="fill:#414042"></path><path d="M244.82,245.27a2.32,2.32,0,1,0-2.32,2.32,2.2,2.2,0,0,0,1.18-.37l14.47,14.47a2.28,2.28,0,0,0-.37,1.18,2.32,2.32,0,1,0,2.32-2.32,2.28,2.28,0,0,0-1.18.37l-14.47-14.47A2.28,2.28,0,0,0,244.82,245.27Z" style="fill:#414042"></path><path d="M183.46,188.61v12.28a2.28,2.28,0,0,0-1.91,2.23,2.32,2.32,0,0,0,4.64,0,2.28,2.28,0,0,0-1.91-2.23V188.61a2.28,2.28,0,0,0,1.91-2.23,2.32,2.32,0,0,0-4.64,0A2.28,2.28,0,0,0,183.46,188.61Z" style="fill:#414042"></path><path d="M183.87,124.15a2.32,2.32,0,1,0-4.64,0,2.26,2.26,0,0,0,.3,1.07l-5.91,5.91V142a2.29,2.29,0,0,0-1.77,2.21,2.32,2.32,0,0,0,4.64,0,2.3,2.3,0,0,0-1.78-2.21V131.58l5.56-5.55a2.22,2.22,0,0,0,1.28.44A2.32,2.32,0,0,0,183.87,124.15Z" style="fill:#414042"></path><path d="M204.86,103.39a2.32,2.32,0,0,0-4.64,0A2.28,2.28,0,0,0,202,105.6v40.49L182.12,166a2.28,2.28,0,0,0-1.18-.37,2.32,2.32,0,1,0,2.32,2.32,2.28,2.28,0,0,0-.37-1.18l20.19-20.19v-41A2.29,2.29,0,0,0,204.86,103.39Z" style="fill:#414042"></path><path d="M190.77,99.14a2.32,2.32,0,0,0-4.64,0,2.29,2.29,0,0,0,1.78,2.21v38.31l-12.95,13a2.24,2.24,0,0,0-1.06-.29,2.32,2.32,0,1,0,2.32,2.32,2.29,2.29,0,0,0-.45-1.3L189,140.12V101.35A2.28,2.28,0,0,0,190.77,99.14Z" style="fill:#414042"></path><path d="M206.72,249.2a2.32,2.32,0,0,0,2.32-2.32,2.24,2.24,0,0,0-.42-1.26l7.28-7.27V224a2.29,2.29,0,0,0,1.77-2.21,2.32,2.32,0,0,0-4.64,0,2.3,2.3,0,0,0,1.78,2.21v13.93l-7,7a2.28,2.28,0,0,0-1.1-.32,2.32,2.32,0,0,0,0,4.64Z" style="fill:#414042"></path><path d="M201.5,254.1a2.32,2.32,0,1,0-4.63,0,2.28,2.28,0,0,0,.36,1.18l-11,11v41.58a2.29,2.29,0,0,0-1.78,2.21,2.32,2.32,0,0,0,4.64,0,2.28,2.28,0,0,0-1.77-2.21V266.72L198,256.05a2.16,2.16,0,0,0,1.17.37A2.32,2.32,0,0,0,201.5,254.1Z" style="fill:#414042"></path><path d="M163.37,240.67a2.29,2.29,0,0,0,1.78,2.2v76.28a2.29,2.29,0,0,0-1.78,2.21,2.32,2.32,0,0,0,4.64,0,2.28,2.28,0,0,0-1.77-2.21V242.87a2.28,2.28,0,0,0,1.77-2.2,2.32,2.32,0,0,0-4.64,0Z" style="fill:#414042"></path><path d="M228,245.16v-71l16.43-16.43a2,2,0,1,0-1-1.7,1.9,1.9,0,0,0,.43,1.19l-16.62,16.63v71L202.08,270l-.11.11v41.24l16.91,16.91v11.9a2,2,0,0,0-1.57,1.91,2,2,0,1,0,4,0,2,2,0,0,0-1.65-1.92v-12.2L202.74,311V270.41l25.14-25.14Z" style="fill:#414042"></path><path d="M238.71,186.17a2,2,0,0,0,4,0,2,2,0,0,0-.36-1.09l9.59-9.59a1.91,1.91,0,0,0,1.08.36,2,2,0,1,0-2-2,1.91,1.91,0,0,0,.37,1.09l-9.59,9.59a2,2,0,0,0-1.09-.37A2,2,0,0,0,238.71,186.17Z" style="fill:#414042"></path><path d="M259.92,239a2,2,0,0,0,2,2,2,2,0,0,0,1.09-.36l13.08,13.08v11.73a2,2,0,0,0-1.61,1.91,2,2,0,1,0,4,0,2,2,0,0,0-1.61-1.91V253.42l-13.3-13.31a1.91,1.91,0,0,0,.36-1.08,2,2,0,1,0-4,0Z" style="fill:#414042"></path><path d="M269,371a2,2,0,0,0,.36,1.09l-15.83,15.84a2,2,0,0,0-1.09-.37,2,2,0,1,0,2,2,2,2,0,0,0-.36-1.09l15.84-15.84A1.92,1.92,0,0,0,271,373a2,2,0,1,0-2-2Z" style="fill:#414042"></path><path d="M202.31,52.34a2,2,0,0,0,1.62,1.92V67.7L230.25,94V126a2,2,0,0,0-1.61,1.92,2,2,0,0,0,4,0A2,2,0,0,0,231,126V93.71L204.69,67.39V54.26a2,2,0,0,0,1.61-1.92,2,2,0,0,0-4,0Z" style="fill:#414042"></path><path d="M204.72,41v-63.3h-.82V41a2,2,0,0,0-1.59,1.91,2,2,0,0,0,4,0A2,2,0,0,0,204.72,41Z" style="fill:#414042"></path><path d="M192,164.54a2,2,0,0,0,4,0,2,2,0,0,0-.36-1.09l13.92-13.92.11-.11V115.7a2,2,0,0,0,1.61-1.91,2,2,0,1,0-4,0,2,2,0,0,0,1.62,1.91v33.4l-13.82,13.81a1.92,1.92,0,0,0-1.08-.37A2,2,0,0,0,192,164.54Z" style="fill:#414042"></path><path d="M215,192.65v17.81a2,2,0,0,0,.38,3.91,2,2,0,0,0,.38-3.91V192.65a2,2,0,0,0,1.62-1.92,2,2,0,0,0-4,0A2,2,0,0,0,215,192.65Z" style="fill:#414042"></path><path d="M193.15,235.13a2,2,0,1,0,4,0,1.91,1.91,0,0,0-.36-1.08l3.89-3.89.11-.12V216.8a2,2,0,0,0-.38-3.91,2,2,0,0,0-2,2A2,2,0,0,0,200,216.8v12.93l-3.78,3.78a1.91,1.91,0,0,0-1.09-.37A2,2,0,0,0,193.15,235.13Z" style="fill:#414042"></path><path d="M116.27,207a2,2,0,0,0,4,0,2,2,0,0,0-.36-1.09l3.88-3.89.12-.11V184.78a2,2,0,0,0,1.61-1.92,2,2,0,0,0-4,0,2,2,0,0,0,1.61,1.92v16.84l-3.78,3.78a1.85,1.85,0,0,0-1.08-.37A2,2,0,0,0,116.27,207Z" style="fill:#414042"></path><path d="M193,245.83a2,2,0,1,0,3.62-1.09l10.9-10.9.11-.11V203.85a2,2,0,0,0,1.68-1.93,2,2,0,0,0-4,0,2,2,0,0,0,1.55,1.9v29.59L196.09,244.2a1.94,1.94,0,0,0-3.08,1.63Z" style="fill:#414042"></path><path d="M228.64,149.71a2,2,0,0,0,.36,1.09l-31.83,31.83-.11.11V203a2,2,0,0,0-1.61,1.92,2,2,0,1,0,4,0,2,2,0,0,0-1.61-1.92V183.06l31.71-31.72a2,2,0,1,0-.9-1.63Z" style="fill:#414042"></path><path d="M186.1,85.51V-33.87h-.77V85.51a2,2,0,0,0-1.61,1.91,2,2,0,1,0,4,0A2,2,0,0,0,186.1,85.51Z" style="fill:#414042"></path><path d="M174.8,111.6a1.92,1.92,0,0,0,.37,1.08l-9,9-.11.12V186a2,2,0,0,0-1.61,1.92,2,2,0,0,0,4,0A2,2,0,0,0,166.8,186V122.13l8.91-8.91a1.91,1.91,0,0,0,1.09.37,2,2,0,1,0-2-2Z" style="fill:#414042"></path><path d="M159.22,92a2,2,0,0,0-.35-1.07l7.89-7.88.12-.12V67.05a2,2,0,0,0,1.58-1.91,2,2,0,0,0-4,0,2,2,0,0,0,1.59,1.91V82.59l-7.77,7.76a1.94,1.94,0,0,0-1.06-.35,2,2,0,1,0,2,2Z" style="fill:#414042"></path><path d="M159.92,103.39a1.91,1.91,0,0,0-.37-1.09l13.51-13.5.11-.11V65.34a2,2,0,0,0,1.61-1.91,2,2,0,1,0-4,0,2,2,0,0,0,1.61,1.91v23L159,101.76a1.91,1.91,0,0,0-1.08-.36,2,2,0,1,0,2,2Z" style="fill:#414042"></path><path d="M162.37,211.06a2,2,0,0,0-2-2,2,2,0,0,0-1.09.36l-8.17-8.17V166.59a2,2,0,0,0,1.61-1.91,2,2,0,1,0-4,0,2,2,0,0,0,1.61,1.91v35l8.39,8.39a2,2,0,0,0,1.63,3.08A2,2,0,0,0,162.37,211.06Z" style="fill:#414042"></path><path d="M172.79,324.52a2,2,0,0,0,.38-3.92V248.8a2,2,0,0,0,1.61-1.92,2,2,0,0,0-4,0,2,2,0,0,0,1.61,1.92v71.8a2,2,0,0,0-1.61,1.92A2,2,0,0,0,172.79,324.52Z" style="fill:#414042"></path><path d="M176.24,378.37a2,2,0,0,0-1.63-1.92V352.79l-14.54-14.54a2,2,0,0,0-1.63-3.08,2,2,0,1,0,0,4,1.85,1.85,0,0,0,1.08-.37l14.32,14.32v23.34a2,2,0,0,0,.4,3.91A2,2,0,0,0,176.24,378.37Z" style="fill:#414042"></path><path d="M185,347.12a2.09,2.09,0,1,0,.91-1.63l-13.7-13.7a1.92,1.92,0,0,0,.37-1.08,2,2,0,1,0-2,2,1.91,1.91,0,0,0,1.09-.37l13.7,13.7A2,2,0,0,0,185,347.12Z" style="fill:#414042"></path><path d="M162.82,367.3a2,2,0,0,0-1.61-1.92V352.45l-7.52-7.53a2,2,0,0,0-1.63-3.08,2,2,0,1,0,1.09,3.62l7.3,7.3v12.62a2,2,0,0,0-1.62,1.92,2,2,0,0,0,4,0Z" style="fill:#414042"></path><path d="M187.17,390.82V367.55a2,2,0,0,0,1.62-1.92,2,2,0,0,0-4,0,2,2,0,0,0,1.61,1.92v23.27a2,2,0,0,0-1.61,1.92,2,2,0,0,0,4,0A2,2,0,0,0,187.17,390.82Z" style="fill:#414042"></path><path d="M202.25,419.88a2,2,0,0,0-1.62-1.92V360.23a2,2,0,0,0,1.62-1.91,2,2,0,1,0-4,0,2,2,0,0,0,1.61,1.91V418a2,2,0,0,0-1.61,1.92,2,2,0,0,0,4,0Z" style="fill:#414042"></path><path d="M221.66,265.28a2,2,0,1,0-4,0,2,2,0,0,0,1.61,1.91V299a2,2,0,0,0-1.61,1.91,2,2,0,1,0,4,0,2,2,0,0,0-1.61-1.91V267.19A2,2,0,0,0,221.66,265.28Z" style="fill:#414042"></path><path d="M243.16,414.23a2.26,2.26,0,0,0,1.75-2.19,2.3,2.3,0,0,0-4.59,0,2.26,2.26,0,0,0,1.75,2.19v89.33h1.09Z" style="fill:#414042"></path><path d="M291,295.07a2.27,2.27,0,0,0-1.75,2.19,2.3,2.3,0,1,0,4.59,0,2.27,2.27,0,0,0-1.75-2.19V257.72L279,244.64a2.24,2.24,0,0,0,.36-1.17,2.3,2.3,0,1,0-2.3,2.3,2.24,2.24,0,0,0,1.17-.36L291,258.17Z" style="fill:#414042"></path><path d="M254.67,502.54V399.83L292,362.54l.16-.16V309.85a2.26,2.26,0,0,0,1.75-2.19,2.3,2.3,0,0,0-4.59,0,2.26,2.26,0,0,0,1.75,2.19v52.08l-37.28,37.29-.16.16V502.54Z" style="fill:#414042"></path><path d="M297.3,249.85a2.22,2.22,0,0,0-.37,1.16,2.43,2.43,0,1,0,1.13-1.93l-9.82-9.83V200a2.26,2.26,0,0,0,1.75-2.18,2.3,2.3,0,1,0-4.59,0,2.26,2.26,0,0,0,1.75,2.18V239.7Z" style="fill:#414042"></path><path d="M287.31,188.54a2,2,0,0,0-1.6,1.91,2,2,0,1,0,4,0,2,2,0,0,0-1.6-1.91V173.41l-7.93-7.93a1.92,1.92,0,0,0,.37-1.08,2,2,0,1,0-2,2,1.92,1.92,0,0,0,1.08-.37l7.7,7.7Z" style="fill:#414042"></path><path d="M283,73V105.3l-7.86,7.86v24.77a2.27,2.27,0,0,0-1.77,2.19,2.3,2.3,0,0,0,4.6,0,2.26,2.26,0,0,0-1.74-2.18V113.61l7.86-7.86V72.53L261.25,49.66V-47h-1.09V50.11Z" style="fill:#414042"></path><path d="M291.32,99.25a2.31,2.31,0,1,0,1.09,0v-29L271.65,49.47A2.24,2.24,0,0,0,272,48.3a2.3,2.3,0,1,0-2.3,2.3,2.24,2.24,0,0,0,1.17-.36l20.44,20.44Z" style="fill:#414042"></path><path d="M284.12,120.7a2.26,2.26,0,0,0,1.75-2.19,2.3,2.3,0,1,0-4.59,0A2.26,2.26,0,0,0,283,120.7V159l12.62,12.62v57.23a2.27,2.27,0,0,0-1.75,2.18,2.3,2.3,0,1,0,4.6,0,2.27,2.27,0,0,0-1.76-2.18V171.19l-12.62-12.62Z" style="fill:#414042"></path><path d="M269.33-55.37V37.94a2,2,0,0,0-1.6,1.91,2,2,0,0,0,4,0,2,2,0,0,0-1.61-1.91V-55.37Z" style="fill:#414042"></path><path d="M141.07,351.18V244.58a2.26,2.26,0,0,0,1.76-2.18,2.3,2.3,0,0,0-4.6,0,2.27,2.27,0,0,0,1.76,2.18v107l16.24,16.24V501.09h1.08V367.42Z" style="fill:#414042"></path><path d="M141.38,96.48l-.16.16v18a2.26,2.26,0,0,0-1.75,2.19,2.3,2.3,0,1,0,4.59,0,2.26,2.26,0,0,0-1.75-2.19V97.09l15.34-15.35.16-.16V-49.08h-1.08V81.13Z" style="fill:#414042"></path><path d="M272.61,493.84V412.4a2.27,2.27,0,0,0,1.76-2.19,2.3,2.3,0,0,0-4.6,0,2.27,2.27,0,0,0,1.76,2.19v81.44Z" style="fill:#414042"></path><path d="M134.16,275.91V242.54a2,2,0,0,0,1.61-1.91,2,2,0,1,0-2.37,1.91v33L121,288l-.11.12V362.9l18.56,18.55V490.23h.76V381.14l-18.56-18.56V288.42l12.4-12.4Z" style="fill:#414042"></path><path d="M124.36,87l-.16.16v81.67l-7.6,7.6v18.47a2.26,2.26,0,0,0-1.75,2.19,2.3,2.3,0,0,0,4.59,0,2.26,2.26,0,0,0-1.75-2.19v-18l7.6-7.6V87.56l17.78-17.78.16-.16V-67.93h-1.09V69.17Z" style="fill:#414042"></path><path d="M279.38,37.36V-59.25H278.3V37.81l19.5,19.51v90.42a2.31,2.31,0,1,0,1.09,0V56.87Z" style="fill:#414042"></path><path d="M310.58,58.09v94.1l-8.7,8.69a1.91,1.91,0,0,0-1.07-.36,2,2,0,1,0,2,2,2,2,0,0,0-.38-1.1l8.81-8.8.11-.11V57.78L286.48,32.92V-61.86h-.76v95.1Z" style="fill:#414042"></path><path d="M109.35,253.49l9-9,.11-.11V215l14.49-14.49a1.91,1.91,0,0,0,1.08.36,2.1,2.1,0,1,0-1.62-.9l-14.6,14.6-.11.11v29.44l-9,8.94-.11.11v20.14l7.27,7.28a1.92,1.92,0,0,0-.37,1.08,2,2,0,1,0,2-2,1.94,1.94,0,0,0-1.08.36L109.35,273Z" style="fill:#414042"></path><path d="M116.89,261.5a2.27,2.27,0,0,0,1.75-2.19,2.3,2.3,0,1,0-4.59,0,2.27,2.27,0,0,0,1.75,2.19V268l4.53,4.53a2.25,2.25,0,0,0-.37,1.17,2.3,2.3,0,1,0,2.3-2.3,2.24,2.24,0,0,0-1.17.36l-4.2-4.2Z" style="fill:#414042"></path><path d="M316.51,75.74a2.28,2.28,0,0,0-1.76,2.19,2.3,2.3,0,0,0,4.6,0,2.28,2.28,0,0,0-1.76-2.19V52L303.36,37.74a2.24,2.24,0,0,0,.36-1.17,2.3,2.3,0,1,0-2.29,2.3,2.22,2.22,0,0,0,1.16-.37l13.92,13.92Z" style="fill:#414042"></path><path d="M328.47,349.77V323.3l-6.59-6.58a2.27,2.27,0,0,0,.38-1.2,2.3,2.3,0,1,0-2.3,2.3,2.22,2.22,0,0,0,1.14-.35l6.28,6.28v25.57l-7.55,7.56v22.88l-11.55,11.55a2.25,2.25,0,0,0-1.17-.37,2.3,2.3,0,1,0,2.3,2.3,2.24,2.24,0,0,0-.36-1.17l11.87-11.86V357.33Z" style="fill:#414042"></path><path d="M101,120.81V203a2,2,0,0,0-1.59,1.91,2,2,0,0,0,4,0,2,2,0,0,0-1.62-1.92V121.12l7.31-7.31.11-.11V90.34l18-18a1.92,1.92,0,0,0,1.08.37,2,2,0,1,0-2-2,1.85,1.85,0,0,0,.37,1.08L108.55,89.91l-.11.11v23.37l-7.31,7.31Z" style="fill:#414042"></path><path d="M109.57,128.77a2,2,0,1,0-.76,0v27.87l9.32,9.33a2.07,2.07,0,1,0,.54-.54l-9.1-9.1Z" style="fill:#414042"></path><path d="M131.24,492.29V387.36L113.6,369.72V295.23a2.26,2.26,0,0,0,1.75-2.18,2.3,2.3,0,1,0-4.59,0,2.26,2.26,0,0,0,1.75,2.18v74.94l17.64,17.64V492.29Z" style="fill:#414042"></path><path d="M289.34,503.26V411.84l9.6-9.6a2.25,2.25,0,0,0,1.17.37,2.3,2.3,0,1,0-2.3-2.3,2.24,2.24,0,0,0,.36,1.17l-9.91,9.91v91.87Z" style="fill:#414042"></path><path d="M338.12,278.86a2.3,2.3,0,1,0-1.09,0v20.61l-8.75,8.76a2.16,2.16,0,0,0-1.17-.37,2.3,2.3,0,1,0,2.3,2.3A2.25,2.25,0,0,0,329,309l9.08-9.07Z" style="fill:#414042"></path><path d="M324.37,51.1v81.42a2,2,0,0,0-1.54,1.9,2,2,0,1,0,2.3-1.93V50.79l-21-21V-38.95h-.77v69Z" style="fill:#414042"></path><path d="M332.53,127.36a2.21,2.21,0,0,0,.36-1.16,2.3,2.3,0,1,0-2.3,2.3,2.25,2.25,0,0,0,1.17-.37l4.41,4.41V258.12a2.27,2.27,0,0,0-1.76,2.19,2.3,2.3,0,0,0,4.6,0,2.27,2.27,0,0,0-1.75-2.19v-126Z" style="fill:#414042"></path><path d="M330.21,113a2.27,2.27,0,0,0-1.76,2.19,2.3,2.3,0,0,0,4.6,0,2.27,2.27,0,0,0-1.76-2.19V45.26L313,27a2.22,2.22,0,0,0,.37-1.16,2.3,2.3,0,1,0-2.3,2.3,2.22,2.22,0,0,0,1.16-.37l17.94,17.93Z" style="fill:#414042"></path><path d="M339,121.29V44.44L316.62,22V-34.81h-.76V22.36l22.4,22.39V121.6l12.56,12.56v44.92a2,2,0,0,0-1.61,1.91,2,2,0,0,0,4,0,2,2,0,0,0-1.6-1.91V133.84Z" style="fill:#414042"></path><path d="M343.49,40.83v12a2.27,2.27,0,0,0-1.75,2.19,2.3,2.3,0,1,0,4.59,0,2.27,2.27,0,0,0-1.75-2.19V40.38L325.29,21.09V-38.26h-1.08v59.8Z" style="fill:#414042"></path><path d="M333.65,18.65v-50h-1.08V19.1l17.28,17.28a2.27,2.27,0,0,0,2,3.3,2.3,2.3,0,1,0,0-4.6,2.25,2.25,0,0,0-1.33.48Z" style="fill:#414042"></path><path d="M341.41,17.4V-34h-.76V17.71l10,10a1.87,1.87,0,0,0-.4,1.13,2,2,0,1,0,2-2,2,2,0,0,0-1,.33Z" style="fill:#414042"></path><path d="M350.58,20.32a2.07,2.07,0,1,0,.54-.54l-4.49-4.49v-51h-.76v51.3Z" style="fill:#414042"></path><path d="M334.56,401.12l.15-.16V372.17a2.27,2.27,0,0,0,1.76-2.19,2.3,2.3,0,0,0-4.6,0,2.27,2.27,0,0,0,1.76,2.19v28.34L315.3,418.85l-.16.16v81h1.08V419.45Z" style="fill:#414042"></path><path d="M328.72,416v59.46h.76V416.32L345.77,400V339.3a2,2,0,0,0,1.61-1.91,2,2,0,0,0-4,0A2,2,0,0,0,345,339.3v60.41Z" style="fill:#414042"></path><path d="M96.8,234.91l.42,63.91A2.27,2.27,0,0,0,95.46,301a2.3,2.3,0,1,0,4.6,0,2.27,2.27,0,0,0-1.76-2.18l-.41-63.46,13.44-13.45.16-.16.42-52.2a2.26,2.26,0,0,0,1.75-2.19,2.3,2.3,0,0,0-4.59,0,2.26,2.26,0,0,0,1.75,2.19l-.41,51.76L97,234.75Z" style="fill:#414042"></path><path d="M89,49.3a1.92,1.92,0,0,0-1.08-.37,2,2,0,1,0,2,2,1.85,1.85,0,0,0-.37-1.08L100,39.33l.11-.11V-65.17h-.76V38.91Z" style="fill:#414042"></path><path d="M91.07,232.87a1.94,1.94,0,0,0-.36,1.08,2.07,2.07,0,1,0,.9-1.62L78.84,219.56V180.3a2,2,0,0,0,1.61-1.91,2,2,0,0,0-4,0,2,2,0,0,0,1.61,1.91v39.57Z" style="fill:#414042"></path><path d="M96.51,346.62a2.26,2.26,0,0,0,1.75-2.19,2.3,2.3,0,1,0-4.59,0,2.26,2.26,0,0,0,1.75,2.19V378L115.5,398v23.21a2.27,2.27,0,0,0-1.76,2.19,2.3,2.3,0,0,0,4.6,0,2.27,2.27,0,0,0-1.76-2.19V397.59L96.51,377.52Z" style="fill:#414042"></path><path d="M85.33,389.91a2.24,2.24,0,0,0,.36-1.17A2.3,2.3,0,1,0,83.4,391a2.22,2.22,0,0,0,1.16-.37L98,404.11v80.12h1.08V403.66Z" style="fill:#414042"></path><path d="M87.78,380.46V339.17l-6.42-6.42a2.25,2.25,0,0,0,.37-1.17,2.3,2.3,0,1,0-2.3,2.3,2.24,2.24,0,0,0,1.17-.36l6.1,6.1v41.29l21.16,21.15V487.2h1.08V401.61Z" style="fill:#414042"></path><path d="M91.66,418.35v61.8h.76V418L79.53,405.14A1.88,1.88,0,0,0,80,404a2,2,0,1,0-2,2,2,2,0,0,0,1-.32Z" style="fill:#414042"></path><path d="M90.64,408.82a2.24,2.24,0,0,0-.36,1.17,2.3,2.3,0,1,0,2.3-2.3,2.25,2.25,0,0,0-1.17.37L79.08,395.73V346.62a2.27,2.27,0,0,0,1.76-2.19,2.3,2.3,0,1,0-4.6,0A2.27,2.27,0,0,0,78,346.62v49.56Z" style="fill:#414042"></path><path d="M88.13,424.29v59h.76V424l-9.31-9.3a2,2,0,1,0-1.62.9,1.94,1.94,0,0,0,1.08-.36Z" style="fill:#414042"></path><path d="M79.59,423.84a1.88,1.88,0,0,0,.36-1.06,2,2,0,1,0-2,2,1.91,1.91,0,0,0,1.1-.37l4,4V484h.76V428.12Z" style="fill:#414042"></path><path d="M279.25,396.6a2.21,2.21,0,0,0-1.16-.36,2.3,2.3,0,1,0,2.29,2.3,2.24,2.24,0,0,0-.36-1.17L305.44,372l.16-.16v-51a2.27,2.27,0,0,0,1.76-2.19,2.3,2.3,0,0,0-4.6,0,2.27,2.27,0,0,0,1.76,2.19v50.5Z" style="fill:#414042"></path><path d="M112.82,74.43a2.21,2.21,0,0,0-1.16-.36,2.3,2.3,0,1,0,2.29,2.3,2.24,2.24,0,0,0-.36-1.17l14.95-15,.16-.16v-111h-1.09V59.64Z" style="fill:#414042"></path><path d="M123.69,228.1a2,2,0,0,0,1.6-1.91,2,2,0,1,0-2.36,1.91v32.62l4.25,4.26a1.91,1.91,0,0,0-.36,1.08,2,2,0,1,0,2-2,1.91,1.91,0,0,0-1.09.37l-4-4Z" style="fill:#414042"></path><path d="M349.2,377.58a2.26,2.26,0,0,0,1.76,2.18v30.3L334.82,426.2l-.16.16v51h1.08V426.81l16.15-16.14.15-.16V379.76a2.26,2.26,0,0,0,1.76-2.18,2.3,2.3,0,1,0-4.6,0Z" style="fill:#414042"></path><path d="M348.9,254.81a2.27,2.27,0,0,0,1.76,2.19v62.52l-8.24,8.24a2.27,2.27,0,1,0,1.13,1.93,2.25,2.25,0,0,0-.37-1.17l8.56-8.56V257a2.26,2.26,0,0,0,1.75-2.19,2.3,2.3,0,0,0-4.59,0Z" style="fill:#414042"></path><path d="M348,201.73a2.27,2.27,0,0,0,1.76,2.19v38.26l-5.37,5.38v65.12L333.05,324v29.69a2.27,2.27,0,0,0-1.76,2.19,2.3,2.3,0,0,0,4.6,0,2.27,2.27,0,0,0-1.76-2.19V324.45l11.32-11.32V248l5.38-5.38V203.92a2.28,2.28,0,1,0-2.85-2.19Z" style="fill:#414042"></path><path d="M337.12,345a2.26,2.26,0,0,0,1.75,2.19v36.71a2.32,2.32,0,1,0,1.09,0V347.15a2.26,2.26,0,0,0,1.75-2.19,2.3,2.3,0,1,0-4.59,0Z" style="fill:#414042"></path><path d="M348.24,45.81A2.27,2.27,0,0,0,350,48V61l-5.46,5.45V116l4.13,4.12a2.25,2.25,0,0,0-.37,1.17,2.3,2.3,0,1,0,2.3-2.3,2.24,2.24,0,0,0-1.17.36l-3.8-3.8V66.89l5.45-5.45V48a2.27,2.27,0,0,0,1.76-2.19,2.3,2.3,0,1,0-4.6,0Z" style="fill:#414042"></path><path d="M349.16,71.82A2.27,2.27,0,0,0,350.92,74V106.3a2.27,2.27,0,0,0-1.76,2.19,2.3,2.3,0,0,0,4.6,0A2.27,2.27,0,0,0,352,106.3V74a2.27,2.27,0,0,0,1.76-2.19,2.3,2.3,0,0,0-4.6,0Z" style="fill:#414042"></path><path d="M344.54,146v84.95a2.27,2.27,0,0,0-1.75,2.19,2.3,2.3,0,1,0,4.59,0,2.26,2.26,0,0,0-1.75-2.19V146a2.26,2.26,0,0,0,1.75-2.18,2.3,2.3,0,1,0-4.59,0A2.27,2.27,0,0,0,344.54,146Z" style="fill:#414042"></path><path d="M320.49,92.11a2.3,2.3,0,1,0-2.84,2.19v43l7.53,7.53a2.22,2.22,0,0,0-.37,1.16,2.3,2.3,0,1,0,2.3-2.3,2.25,2.25,0,0,0-1.17.37l-7.2-7.21V94.3A2.26,2.26,0,0,0,320.49,92.11Z" style="fill:#414042"></path><path d="M293.34,31.29a2.3,2.3,0,1,0,4.59,0,2.27,2.27,0,0,0-1.75-2.19V-40.46h-1.09V29.1A2.27,2.27,0,0,0,293.34,31.29Z" style="fill:#414042"></path><path d="M315.09,149.16a2.26,2.26,0,0,0,1.75,2.19v73.39L327.9,235.8v21.62a2.26,2.26,0,0,0-1.75,2.19,2.3,2.3,0,1,0,2.84-2.19V235.36L317.93,224.3v-73a2.26,2.26,0,0,0,1.75-2.19,2.3,2.3,0,0,0-4.59,0Z" style="fill:#414042"></path><path d="M323.22,217.84V164.49A2.27,2.27,0,0,0,325,162.3a2.3,2.3,0,1,0-4.59,0,2.26,2.26,0,0,0,1.75,2.19v53.35a2.26,2.26,0,0,0-1.75,2.19,2.3,2.3,0,1,0,2.84-2.19Z" style="fill:#414042"></path><path d="M322.5,283V240.9l-9.82-9.83v-20a2.27,2.27,0,0,0,1.75-2.19,2.3,2.3,0,1,0-4.59,0,2.27,2.27,0,0,0,1.75,2.19v20.47l9.83,9.83V283a2.27,2.27,0,0,0-1.76,2.19,2.3,2.3,0,0,0,4.6,0A2.27,2.27,0,0,0,322.5,283Z" style="fill:#414042"></path><path d="M307.39,429.29V500h1.08v-70.7a2.27,2.27,0,0,0,1.76-2.19,2.3,2.3,0,0,0-4.6,0A2.27,2.27,0,0,0,307.39,429.29Z" style="fill:#414042"></path><path d="M296.41,411.84a2.3,2.3,0,0,0,4.59,0,2.24,2.24,0,0,0-.36-1.17l20.74-20.75a2.25,2.25,0,0,0,1.17.37,2.3,2.3,0,1,0-2.3-2.3,2.24,2.24,0,0,0,.36,1.17L299.87,409.9a2.24,2.24,0,0,0-1.17-.36A2.3,2.3,0,0,0,296.41,411.84Z" style="fill:#414042"></path><path d="M322.37,330.2v11.38a2.26,2.26,0,0,0-1.78,2.19,2.3,2.3,0,1,0,4.59,0,2.26,2.26,0,0,0-1.72-2.18V330.18a2.25,2.25,0,0,0,1.72-2.18,2.3,2.3,0,1,0-2.81,2.2Z" style="fill:#414042"></path><path d="M304.4,50.7v86.54a2.31,2.31,0,1,0,1.09,0V50.7a2.27,2.27,0,0,0,1.76-2.18,2.3,2.3,0,0,0-4.6,0A2.26,2.26,0,0,0,304.4,50.7Z" style="fill:#414042"></path><path d="M305.73,281.51a2.3,2.3,0,0,0,4.6,0,2.27,2.27,0,0,0-1.76-2.19V248.53l-5.87-5.88a2.2,2.2,0,0,0,.34-1.13,2.3,2.3,0,1,0-2.3,2.29,2.25,2.25,0,0,0,1.2-.38l5.55,5.55v30.34A2.27,2.27,0,0,0,305.73,281.51Z" style="fill:#414042"></path><path d="M296.15,265.25a2.27,2.27,0,0,0,1.75,2.18v66.22a2.3,2.3,0,1,0,1.09,0V267.43a2.26,2.26,0,0,0,1.75-2.18,2.3,2.3,0,1,0-4.59,0Z" style="fill:#414042"></path><path d="M176.17,427.38a2.26,2.26,0,0,0-1.75-2.18V391.58a2.26,2.26,0,0,0,1.75-2.18,2.3,2.3,0,1,0-4.59,0,2.26,2.26,0,0,0,1.75,2.18V425.2a2.26,2.26,0,0,0-1.75,2.18,2.3,2.3,0,1,0,4.59,0Z" style="fill:#414042"></path><path d="M153.54,421.28a2.26,2.26,0,0,0-1.75-2.18V373.84L135,357.09a2.25,2.25,0,0,0-1.93-3.47,2.3,2.3,0,1,0,0,4.6,2.22,2.22,0,0,0,1.16-.37l16.44,16.44V419.1a2.26,2.26,0,0,0-1.75,2.18,2.3,2.3,0,1,0,4.59,0Z" style="fill:#414042"></path><path d="M147.82,390a2.3,2.3,0,0,0-4.6,0,2.27,2.27,0,0,0,1.75,2.19v101h1.09v-101A2.27,2.27,0,0,0,147.82,390Z" style="fill:#414042"></path><path d="M146,249.14a2.3,2.3,0,0,0,4.6,0,2.27,2.27,0,0,0-1.76-2.18V225.17l4.67-4.67a2.27,2.27,0,1,0-1.13-1.93,2.22,2.22,0,0,0,.37,1.16l-5,5V247A2.27,2.27,0,0,0,146,249.14Z" style="fill:#414042"></path><path d="M131,255.8a2.28,2.28,0,0,0-1.76-2.19V219.33l15.25-15.25.16-.16V170a2.26,2.26,0,0,0,1.75-2.19,2.3,2.3,0,1,0-2.84,2.19v33.49l-15.24,15.25-.16.16v34.73a2.27,2.27,0,0,0-1.76,2.19,2.3,2.3,0,0,0,4.6,0Z" style="fill:#414042"></path><path d="M149.92,102.33a2.3,2.3,0,0,0-2.3,2.3,2.27,2.27,0,0,0,1.76,2.18v46.08a2.27,2.27,0,0,0-1.76,2.19,2.3,2.3,0,0,0,4.6,0,2.27,2.27,0,0,0-1.76-2.19V106.81a2.27,2.27,0,0,0,1.76-2.18A2.3,2.3,0,0,0,149.92,102.33Z" style="fill:#414042"></path><path d="M165.48,53.94V16.47a2.28,2.28,0,0,0,1.76-2.19,2.3,2.3,0,0,0-4.6,0,2.26,2.26,0,0,0,1.76,2.18V53.94a2.27,2.27,0,0,0-1.76,2.19,2.3,2.3,0,0,0,4.6,0A2.27,2.27,0,0,0,165.48,53.94Z" style="fill:#414042"></path><path d="M147.57,79.07a2.25,2.25,0,0,0,.37,1.17L135.4,92.78l-.17.16v95.44a2.27,2.27,0,0,0-1.75,2.19,2.3,2.3,0,0,0,4.6,0,2.27,2.27,0,0,0-1.76-2.19v-95L148.7,81a2.27,2.27,0,1,0-1.13-1.93Z" style="fill:#414042"></path><path d="M118.33,153.5a2.28,2.28,0,0,0-1.76-2.19V98.2A2.27,2.27,0,0,0,118.33,96a2.3,2.3,0,0,0-4.6,0,2.27,2.27,0,0,0,1.76,2.19v53.11a2.28,2.28,0,0,0-1.76,2.19,2.3,2.3,0,0,0,4.6,0Z" style="fill:#414042"></path><path d="M102.16,317.78a2.3,2.3,0,0,0,4.6,0,2.27,2.27,0,0,0-1.76-2.19v-26.4a2.27,2.27,0,0,0,1.76-2.19,2.3,2.3,0,0,0-4.6,0,2.27,2.27,0,0,0,1.76,2.19v26.4A2.27,2.27,0,0,0,102.16,317.78Z" style="fill:#414042"></path><path d="M129.48,293.24a2.3,2.3,0,1,0-4.59,0,2.26,2.26,0,0,0,1.75,2.18v43.25a2.26,2.26,0,0,0-1.75,2.19,2.3,2.3,0,0,0,4.59,0,2.26,2.26,0,0,0-1.75-2.19V295.42A2.25,2.25,0,0,0,129.48,293.24Z" style="fill:#414042"></path><path d="M116.11,226.4a2.3,2.3,0,1,0-4.59,0,2.21,2.21,0,0,0,.36,1.16l-9.54,9.54-.16.16v35.93l6.46,6.46a2.24,2.24,0,0,0-.36,1.17,2.3,2.3,0,1,0,2.3-2.3,2.24,2.24,0,0,0-1.17.36l-6.14-6.14v-35l9.38-9.38a2.21,2.21,0,0,0,1.16.36A2.3,2.3,0,0,0,116.11,226.4Z" style="fill:#414042"></path><path d="M105.77,409a2.3,2.3,0,0,0-4.59,0,2.26,2.26,0,0,0,1.75,2.19v73H104v-73A2.26,2.26,0,0,0,105.77,409Z" style="fill:#414042"></path><path d="M81.13,316a2.27,2.27,0,0,0-1.75-2.18v-79a2.3,2.3,0,1,0-1.09,0v79A2.26,2.26,0,0,0,76.54,316a2.3,2.3,0,1,0,4.59,0Z" style="fill:#414042"></path><path d="M95.41,228.12a2.3,2.3,0,1,0,2.29-2.3,2.22,2.22,0,0,0-1.16.37L86,215.65a2.24,2.24,0,0,0,.36-1.17,2.3,2.3,0,1,0-2.3,2.3,2.25,2.25,0,0,0,1.17-.37L95.77,227A2.27,2.27,0,0,0,95.41,228.12Z" style="fill:#414042"></path><path d="M94.72,128.13a2.26,2.26,0,0,0,1.75,2.19v55.93a2.26,2.26,0,0,0-1.75,2.18,2.3,2.3,0,1,0,4.59,0,2.26,2.26,0,0,0-1.75-2.18V130.32a2.26,2.26,0,0,0,1.75-2.19,2.3,2.3,0,1,0-4.59,0Z" style="fill:#414042"></path><path d="M84.18,137.94a2.27,2.27,0,0,0,1.76,2.19v66.51l11,11a2.25,2.25,0,0,0-.37,1.17,2.3,2.3,0,1,0,2.3-2.3,2.27,2.27,0,0,0-1.17.36L87,206.19V140.13a2.27,2.27,0,0,0,1.76-2.19,2.3,2.3,0,0,0-4.6,0Z" style="fill:#414042"></path><path d="M80.76,163.39A2.26,2.26,0,0,0,79,161.21V76.61a2.27,2.27,0,0,0,1.76-2.19,2.3,2.3,0,0,0-4.6,0,2.27,2.27,0,0,0,1.76,2.19v84.6a2.26,2.26,0,0,0-1.76,2.18,2.3,2.3,0,0,0,4.6,0Z" style="fill:#414042"></path><path d="M81.77,122.57a2.3,2.3,0,1,0,4.59,0,2.25,2.25,0,0,0-1.75-2.18V68.82L108.4,45l.16-.16V-60h-1.08V44.41l-23.8,23.8-.16.16v52A2.26,2.26,0,0,0,81.77,122.57Z" style="fill:#414042"></path><path d="M100.14,79.53a2.3,2.3,0,0,0-4.6,0,2.27,2.27,0,0,0,1.76,2.18v31.34a2.27,2.27,0,0,0-1.76,2.19,2.3,2.3,0,0,0,4.6,0,2.27,2.27,0,0,0-1.76-2.19V81.71A2.27,2.27,0,0,0,100.14,79.53Z" style="fill:#414042"></path><path d="M80.39,65a2.27,2.27,0,0,0-1.75-2.19V50.56L95.24,34l.16-.16V-59.86H94.32v93.2L77.71,50l-.16.16v12.7A2.27,2.27,0,0,0,75.8,65a2.3,2.3,0,1,0,4.59,0Z" style="fill:#414042"></path><path d="M112.71,42.44a2.3,2.3,0,1,0,4.6,0,2.27,2.27,0,0,0-1.76-2.19v-96h-1.08v96A2.27,2.27,0,0,0,112.71,42.44Z" style="fill:#414042"></path><path d="M350.23,425.69a1.94,1.94,0,0,0,.36,1.08l-4.86,4.86v50.52h.76V432l4.64-4.64a1.94,1.94,0,0,0,1.08.36,2,2,0,1,0-2-2Z" style="fill:#414042"></path><path d="M350.21,418.09a2,2,0,0,0,.36,1.09l-10.64,10.64v50.94h.77V430.13l10.41-10.41a1.94,1.94,0,0,0,1.08.36,2,2,0,1,0-2-2Z" style="fill:#414042"></path><path d="M349.51,331.38a2,2,0,0,0,1.61,1.91V363.2a2,2,0,0,0-1.61,1.91,2,2,0,0,0,4,0,2,2,0,0,0-1.61-1.91V333.29a2,2,0,0,0,1.61-1.91,2,2,0,0,0-4,0Z" style="fill:#414042"></path><path d="M326.81,366.09a2,2,0,0,0,1.62,1.91v24.82L299.7,421.54v70.78h.77V421.86l28.72-28.73V368a2,2,0,1,0-2.38-1.91Z" style="fill:#414042"></path><path d="M274.84,366.09a2,2,0,0,0,4,0,1.88,1.88,0,0,0-.37-1.08l5.54-5.54V268.53a2,2,0,0,0,1.6-1.91,2,2,0,1,0-2.36,1.91v90.63l-5.32,5.31a1.91,1.91,0,0,0-1.08-.36A2,2,0,0,0,274.84,366.09Z" style="fill:#414042"></path><path d="M296.46,344.65a2,2,0,0,0,1.61,1.91V368l-35.54,35.54v89.9h.76V403.86l35.54-35.54V346.56a2,2,0,0,0,1.6-1.91,2,2,0,1,0-4,0Z" style="fill:#414042"></path><path d="M318.47,322a2,2,0,0,0-4,0,2,2,0,0,0,1.61,1.91v26.61a2,2,0,0,0-1.65,1.92,2,2,0,0,0,4,0,2,2,0,0,0-1.56-1.91V323.87A2,2,0,0,0,318.47,322Z" style="fill:#414042"></path><path d="M342.54,306.74a2,2,0,1,0-4,0,2,2,0,0,0,.36,1.08L331.79,315a1.94,1.94,0,0,0-1.08-.36,2,2,0,1,0,2,2,1.94,1.94,0,0,0-.36-1.08l7.14-7.14a2,2,0,0,0,1.08.36A2,2,0,0,0,342.54,306.74Z" style="fill:#414042"></path><path d="M330.4,267.88a2,2,0,0,0-4,0,2,2,0,0,0,1.61,1.91v22.57L311,309.41v66.37L280.3,406.45v85.87h.76V406.77l30.67-30.67V309.73l17.06-17.06V269.79A2,2,0,0,0,330.4,267.88Z" style="fill:#414042"></path><path d="M328.82,221.19a2,2,0,0,0,4,0,2,2,0,0,0-1.61-1.91V155a2,2,0,0,0,1.61-1.91,2,2,0,0,0-4,0,2,2,0,0,0,1.61,1.91v64.31A2,2,0,0,0,328.82,221.19Z" style="fill:#414042"></path><path d="M310.15,168.75a2,2,0,0,0,1.6,1.91V200.1a2,2,0,1,0,.77,0V170.66a2,2,0,0,0,1.6-1.91,2,2,0,1,0-4,0Z" style="fill:#414042"></path><path d="M303.69,172.53a2,2,0,0,0,1.61,1.91v62.32l9.61,9.62v41.13l-8.15,8.15a1.92,1.92,0,0,0-1.1-.38,2,2,0,1,0,2,2,1.94,1.94,0,0,0-.35-1.06l8.38-8.38V246.06l-9.62-9.61v-62a2,2,0,0,0,1.61-1.91,2,2,0,0,0-4,0Z" style="fill:#414042"></path><path d="M293.86,157.24a2,2,0,0,0-1.61-1.91V114.75a2,2,0,0,0,1.61-1.91,2,2,0,0,0-4,0,2,2,0,0,0,1.61,1.91v40.58a2,2,0,0,0-1.61,1.91,2,2,0,0,0,4,0Z" style="fill:#414042"></path><path d="M167.26,386.52a2,2,0,0,0-4,0,2,2,0,0,0,1.61,1.91V494.49h.76V388.43A1.94,1.94,0,0,0,167.26,386.52Z" style="fill:#414042"></path><path d="M125,401.48a2,2,0,0,0-4,0,2,2,0,0,0,1.61,1.91V500h.76V403.39A2,2,0,0,0,125,401.48Z" style="fill:#414042"></path><path d="M121.72,392a2,2,0,0,0-2-2,1.91,1.91,0,0,0-1.08.36L104.53,376.3V327.88a2,2,0,0,0,1.61-1.91,2,2,0,1,0-4,0,2,2,0,0,0,1.61,1.91v48.74L118.11,391a2,2,0,0,0-.37,1.08,2,2,0,0,0,4,0Z" style="fill:#414042"></path><path d="M91.3,275.91v18.76a2,2,0,0,0-1.61,1.91,2,2,0,1,0,4,0,2,2,0,0,0-1.61-1.91V275.91A2,2,0,0,0,93.67,274a2,2,0,1,0-4,0A2,2,0,0,0,91.3,275.91Z" style="fill:#414042"></path><path d="M147.77,255.91a2,2,0,0,0,1.61,1.91v73.1a2,2,0,0,0-1.61,1.91,2,2,0,0,0,4,0,2,2,0,0,0-1.61-1.91v-73.1a2,2,0,0,0,1.61-1.91,2,2,0,0,0-4,0Z" style="fill:#414042"></path><path d="M149,212.82a2,2,0,1,0-3.61,1.09l-5.49,5.49-.11.11v11.25a2,2,0,0,0-1.6,1.91,2,2,0,1,0,2.36-1.91V219.82l5.38-5.37a2,2,0,0,0,1.08.36A2,2,0,0,0,149,212.82Z" style="fill:#414042"></path><path d="M136,333.16a2,2,0,0,0-1.61-1.91V286.38a2,2,0,0,0,1.61-1.91,2,2,0,1,0-4,0,2,2,0,0,0,1.61,1.91v44.87a2,2,0,0,0-1.61,1.91,2,2,0,1,0,4,0Z" style="fill:#414042"></path><path d="M92.5,335.31a2.07,2.07,0,1,0,.9-1.62l-6.54-6.54v-87.3a2,2,0,0,0,1.61-1.91,2,2,0,1,0-4,0,2,2,0,0,0,1.61,1.91v87.61l6.76,6.77A1.94,1.94,0,0,0,92.5,335.31Z" style="fill:#414042"></path><path d="M140.73,160a2,2,0,1,0,4,0,2,2,0,0,0-1.6-1.91V126a2,2,0,0,0,1.6-1.91,2,2,0,1,0-4,0,2,2,0,0,0,1.61,1.91V158.1A2,2,0,0,0,140.73,160Z" style="fill:#414042"></path><path d="M186.4,153.47a1.88,1.88,0,0,0-.37-1.09l9.81-9.81.11-.11v-32.8a2,2,0,0,0,1.57-1.9,2,2,0,1,0-4,0,2,2,0,0,0,1.64,1.92v32.46l-9.7,9.7a1.92,1.92,0,0,0-1.08-.37,2,2,0,1,0,2,2Z" style="fill:#414042"></path><path d="M128.19,100.78a2,2,0,0,0,1.61,1.91v74.63a2,2,0,0,0-1.61,1.91,2,2,0,0,0,4,0,2,2,0,0,0-1.61-1.91V102.69a2,2,0,0,0,1.61-1.91,2,2,0,1,0-4,0Z" style="fill:#414042"></path><path d="M170.09,55.34a2,2,0,1,0,4,0,2,2,0,0,0-1.61-1.91V-64.73h-.76V53.44A2,2,0,0,0,170.09,55.34Z" style="fill:#414042"></path><path d="M150.3,69.42v-126h-.76v126a2,2,0,0,0-1.61,1.91,2,2,0,0,0,4,0A2,2,0,0,0,150.3,69.42Z" style="fill:#414042"></path><path d="M133.51,56.32a2,2,0,0,0,4,0,2,2,0,0,0-1.61-1.91V-55.24h-.76V54.41A2,2,0,0,0,133.51,56.32Z" style="fill:#414042"></path><path d="M102.24,86.09v19.85a2,2,0,0,0-1.61,1.9,2,2,0,1,0,4,0,2,2,0,0,0-1.6-1.91V86.09a2,2,0,0,0,1.6-1.91,2,2,0,0,0-4,0A2,2,0,0,0,102.24,86.09Z" style="fill:#414042"></path><path d="M111,54.17a1.91,1.91,0,0,0,.36,1.08L90.69,75.9l-.11.11v37.7A2,2,0,0,0,89,115.62a2,2,0,0,0,4,0,1.94,1.94,0,0,0-1.6-1.91V76.32l20.53-20.53a1.88,1.88,0,0,0,1.08.37,2,2,0,1,0-2-2Z" style="fill:#414042"></path><path d="M79.94,42.44a1.91,1.91,0,0,0-.36-1.08L90.76,30.18l.11-.11V-50.4H90.1V29.75L79,40.82A1.9,1.9,0,0,0,78,40.45a2,2,0,1,0,2,2Z" style="fill:#414042"></path><path d="M79.94,24.8a1.94,1.94,0,0,0-.37-1.1l3.13-3.13v-68.7h-.76V20.26L79,23.17A1.88,1.88,0,0,0,78,22.81a2,2,0,1,0,2,2Z" style="fill:#414042"></path><path d="M79.94,33.53a2,2,0,0,0-.39-1.13l6.79-6.79.11-.11v-73h-.76v72.7L79,31.88a1.9,1.9,0,0,0-1-.34,2,2,0,1,0,2,2Z" style="fill:#414042"></path></g></g></svg> 