<svg height="50" viewBox="0 0 50 50" width="50" xmlns="http://www.w3.org/2000/svg"><path d="m440 1877c13.807119 0 25 11.19288 25 25s-11.192881 25-25 25-25-11.19288-25-25 11.192881-25 25-25zm0 1.21951c-13.133601 0-23.780488 10.64689-23.780488 23.78049s10.646887 23.78049 23.780488 23.78049 23.780488-10.64689 23.780488-23.78049-10.646887-23.78049-23.780488-23.78049zm-7.671707 13.78049c3.401306 0 6.062461 2.63682 6.326872 6.25303.388536 5.30356-1.959081 10.39684-5.371268 13.35344-.12395.10679-.280389.16407-.441537.16407-.133041 0-.262727-.039-.37496-.11398l-.080683-.06294-.25925-.24256-1.817524-1.82486c-.22979-.22881-.26291-.58851-.078325-.85478.829675-1.19935 1.28115-2.29194 1.443881-3.25052l.032468-.21882.024007-.23356.010885-.21121.001326-.0862-.00244-.09443c-3.079785-.28589-5.503824-2.76192-5.725243-5.81803l-.012452-.23027-.00405-.22675c0-3.47514 2.838449-6.30163 6.328293-6.30163zm15.223373 0c3.237499 0 5.815159 2.3933 6.276055 5.7643l.029302.24243.022101.24886.023704.3897c.251108 5.15772-2.077952 10.08607-5.394992 12.96023-.123937.10749-.280586.16502-.442147.16502-.132553 0-.262286-.03891-.374715-.1137l-.080851-.06277-.260085-.2431-.389012-.38816-.919543-.92841-.508598-.5082c-.229787-.22881-.262907-.58851-.078344-.85475.906687-1.31109 1.359178-2.48651 1.480215-3.49077l.020908-.21256.010836-.20534.000684-.17646c-3.081861-.29529-5.50632-2.77156-5.727775-5.82767l-.012454-.23027-.004051-.22675c0-3.47507 2.838807-6.30163 6.328762-6.30163zm-15.223373 1.34146c-2.746293 0-4.981145 2.22544-4.981145 4.96017 0 2.73507 2.234795 4.96056 4.981145 4.96056.218606 0 .426277.11072.559185.29982l.052197.08574.037317.09357.032001.11092.016595.07332.01598.08465.025202.17932.017072.20245c.006075.10511.008431.21521.006684.33161l-.005746.17948-.02142.28718c-.110136 1.1021-.530514 2.33422-1.328972 3.63848l-.085718.13527 1.200186 1.2078.237115-.24088.198639-.21265.214598-.2397.346409-.40961.368404-.46876.253706-.34485.259276-.37331c1.835934-2.72366 2.849373-5.91781 2.584802-9.53184-.213209-2.9098-2.309231-5.00874-4.983512-5.00874zm15.223373 0c-2.746694 0-4.981614 2.22537-4.981614 4.96017 0 2.73514 2.234863 4.96056 4.981614 4.96056.218414 0 .426335.11087.556836.29388l.050994.08274.023211.05308.035314.10579.032395.13424.028104.16424.021052.18749c.010607.1248.015727.25782.014708.39973l-.006213.21962-.021482.28716c-.110363 1.10204-.530842 2.33414-1.32929 3.63852l-.085368.13532 1.200186 1.2078.334352-.34382.206929-.22624.221652-.25314.319697-.38579.282613-.36276.255662-.34764c1.846872-2.58237 2.95462-5.63467 2.880275-9.10363l-.014623-.41828-.022752-.37597-.021236-.23308c-.304823-2.79697-2.365704-4.77999-4.963016-4.77999z" fill="#ff9e1b" transform="translate(-415 -1877)"/></svg>